<svg width="1440" height="1024" viewBox="0 0 1440 1024" fill="none" xmlns="http://www.w3.org/2000/svg">
  <rect width="1440" height="1024" fill="#0C1016"/>
  <rect width="1440" height="140" fill="#090C12"/>
  <rect x="56" y="38" width="58" height="58" rx="18" fill="url(#g1)"/>
  <text x="132" y="63" fill="#F4F7FA" font-size="28" font-family="Georgia, serif" font-weight="700">FightBase</text>
  <text x="132" y="91" fill="#96A2B4" font-size="14" font-family="Arial">MMA media platform</text>
  <text x="470" y="70" fill="#DDE4EC" font-size="16" font-family="Arial">Новости</text>
  <text x="590" y="70" fill="#DDE4EC" font-size="16" font-family="Arial">Турниры</text>
  <text x="710" y="70" fill="#DDE4EC" font-size="16" font-family="Arial">Бойцы</text>
  <text x="815" y="70" fill="#DDE4EC" font-size="16" font-family="Arial">Рейтинги</text>
  <text x="935" y="70" fill="#DDE4EC" font-size="16" font-family="Arial">Аналитика</text>
  <rect x="1188" y="42" width="196" height="52" rx="26" fill="#141B24" stroke="#243242"/>
  <text x="1244" y="74" fill="#F4F7FA" font-size="15" font-family="Arial" font-weight="700">Подписаться</text>

  <rect x="56" y="172" width="834" height="392" rx="32" fill="url(#hero)"/>
  <rect x="56" y="172" width="834" height="392" rx="32" fill="url(#overlay)"/>
  <text x="92" y="236" fill="#F3B650" font-size="14" font-family="Arial" letter-spacing="2">ТЕМА ДНЯ</text>
  <text x="92" y="322" fill="white" font-size="64" font-family="Georgia, serif" font-weight="700">Перейра,</text>
  <text x="92" y="392" fill="white" font-size="64" font-family="Georgia, serif" font-weight="700">Анкалаев и</text>
  <text x="92" y="462" fill="white" font-size="64" font-family="Georgia, serif" font-weight="700">новый расклад</text>
  <text x="92" y="509" fill="#D7DFE8" font-size="20" font-family="Arial">Большая история дня с сильной обложкой, коротким лидом и</text>
  <text x="92" y="537" fill="#D7DFE8" font-size="20" font-family="Arial">ощущением настоящего спортивного издания.</text>
  <rect x="92" y="582" width="148" height="50" rx="25" fill="#FF653C"/>
  <text x="132" y="614" fill="white" font-size="16" font-family="Arial" font-weight="700">Читать</text>

  <rect x="926" y="172" width="458" height="182" rx="28" fill="#121821" stroke="#202A37"/>
  <text x="960" y="214" fill="#95A4B4" font-size="13" font-family="Arial">СРOЧНО</text>
  <text x="960" y="254" fill="#F5F7FA" font-size="34" font-family="Georgia, serif" font-weight="700">Главный анонс недели</text>
  <text x="960" y="288" fill="#95A4B4" font-size="16" font-family="Arial">Крупная карточка с плотной типографикой</text>
  <text x="960" y="311" fill="#95A4B4" font-size="16" font-family="Arial">и ощущением дорогого спорт-медиа.</text>

  <rect x="926" y="382" width="458" height="182" rx="28" fill="#121821" stroke="#202A37"/>
  <text x="960" y="424" fill="#95A4B4" font-size="13" font-family="Arial">БЛИЖАЙШИЙ ТУРНИР</text>
  <text x="960" y="464" fill="#F5F7FA" font-size="34" font-family="Georgia, serif" font-weight="700">UFC 316</text>
  <text x="960" y="500" fill="#95A4B4" font-size="16" font-family="Arial">Мощная афиша события, основной бой,</text>
  <text x="960" y="523" fill="#95A4B4" font-size="16" font-family="Arial">дата и движение к карточке турнира.</text>

  <text x="56" y="660" fill="#F4F7FA" font-size="36" font-family="Georgia, serif" font-weight="700">Свежие новости</text>
  <g>
    <rect x="56" y="694" width="424" height="264" rx="28" fill="#121821" stroke="#202A37"/>
    <rect x="80" y="718" width="376" height="130" rx="20" fill="url(#card1)"/>
    <text x="80" y="876" fill="#F4F7FA" font-size="28" font-family="Georgia, serif" font-weight="700">Титульный бой подтвержден</text>
    <text x="80" y="908" fill="#97A4B4" font-size="16" font-family="Arial">Короткое описание, источник, время и теги.</text>
  </g>
  <g>
    <rect x="508" y="694" width="424" height="264" rx="28" fill="#121821" stroke="#202A37"/>
    <rect x="532" y="718" width="376" height="130" rx="20" fill="url(#card2)"/>
    <text x="532" y="876" fill="#F4F7FA" font-size="28" font-family="Georgia, serif" font-weight="700">Разбор главного апсета</text>
    <text x="532" y="908" fill="#97A4B4" font-size="16" font-family="Arial">Редакционный акцент и премиальная лента.</text>
  </g>
  <g>
    <rect x="960" y="694" width="424" height="264" rx="28" fill="#121821" stroke="#202A37"/>
    <rect x="984" y="718" width="376" height="130" rx="20" fill="url(#card3)"/>
    <text x="984" y="876" fill="#F4F7FA" font-size="28" font-family="Georgia, serif" font-weight="700">Трендовые бойцы недели</text>
    <text x="984" y="908" fill="#97A4B4" font-size="16" font-family="Arial">Сетка выглядит как витрина сильного медиа.</text>
  </g>

  <defs>
    <linearGradient id="g1" x1="56" y1="38" x2="114" y2="96" gradientUnits="userSpaceOnUse">
      <stop stop-color="#FF5E3A"/>
      <stop offset="1" stop-color="#F2B451"/>
    </linearGradient>
    <linearGradient id="hero" x1="56" y1="172" x2="890" y2="564" gradientUnits="userSpaceOnUse">
      <stop stop-color="#29323E"/>
      <stop offset="0.55" stop-color="#111822"/>
      <stop offset="1" stop-color="#0B1016"/>
    </linearGradient>
    <linearGradient id="overlay" x1="56" y1="172" x2="606" y2="564" gradientUnits="userSpaceOnUse">
      <stop stop-color="#000000" stop-opacity="0.08"/>
      <stop offset="1" stop-color="#000000" stop-opacity="0.64"/>
    </linearGradient>
    <linearGradient id="card1" x1="80" y1="718" x2="456" y2="848" gradientUnits="userSpaceOnUse">
      <stop stop-color="#394454"/>
      <stop offset="1" stop-color="#1A232D"/>
    </linearGradient>
    <linearGradient id="card2" x1="532" y1="718" x2="908" y2="848" gradientUnits="userSpaceOnUse">
      <stop stop-color="#4E302F"/>
      <stop offset="1" stop-color="#1C2028"/>
    </linearGradient>
    <linearGradient id="card3" x1="984" y1="718" x2="1360" y2="848" gradientUnits="userSpaceOnUse">
      <stop stop-color="#243744"/>
      <stop offset="1" stop-color="#1A2028"/>
    </linearGradient>
  </defs>
</svg>
